<svg width="20" height="20" viewBox="0 0 20 20" fill="none" xmlns="http://www.w3.org/2000/svg">
<path d="M7.375 0.375H2.125C1.66087 0.375 1.21575 0.559374 0.887563 0.887563C0.559374 1.21575 0.375 1.66087 0.375 2.125V7.375C0.375 7.83913 0.559374 8.28425 0.887563 8.61244C1.21575 8.94063 1.66087 9.125 2.125 9.125H7.375C7.83913 9.125 8.28425 8.94063 8.61244 8.61244C8.94063 8.28425 9.125 7.83913 9.125 7.375V2.125C9.125 1.66087 8.94063 1.21575 8.61244 0.887563C8.28425 0.559374 7.83913 0.375 7.375 0.375ZM7.375 7.375H2.125V2.125H7.375V7.375ZM7.375 10.875H2.125C1.66087 10.875 1.21575 11.0594 0.887563 11.3876C0.559374 11.7158 0.375 12.1609 0.375 12.625V17.875C0.375 18.3391 0.559374 18.7842 0.887563 19.1124C1.21575 19.4406 1.66087 19.625 2.125 19.625H7.375C7.83913 19.625 8.28425 19.4406 8.61244 19.1124C8.94063 18.7842 9.125 18.3391 9.125 17.875V12.625C9.125 12.1609 8.94063 11.7158 8.61244 11.3876C8.28425 11.0594 7.83913 10.875 7.375 10.875ZM7.375 17.875H2.125V12.625H7.375V17.875ZM17.875 0.375H12.625C12.1609 0.375 11.7158 0.559374 11.3876 0.887563C11.0594 1.21575 10.875 1.66087 10.875 2.125V7.375C10.875 7.83913 11.0594 8.28425 11.3876 8.61244C11.7158 8.94063 12.1609 9.125 12.625 9.125H17.875C18.3391 9.125 18.7842 8.94063 19.1124 8.61244C19.4406 8.28425 19.625 7.83913 19.625 7.375V2.125C19.625 1.66087 19.4406 1.21575 19.1124 0.887563C18.7842 0.559374 18.3391 0.375 17.875 0.375ZM17.875 7.375H12.625V2.125H17.875V7.375ZM10.875 15.25V11.75C10.875 11.5179 10.9672 11.2954 11.1313 11.1313C11.2954 10.9672 11.5179 10.875 11.75 10.875C11.9821 10.875 12.2046 10.9672 12.3687 11.1313C12.5328 11.2954 12.625 11.5179 12.625 11.75V15.25C12.625 15.4821 12.5328 15.7046 12.3687 15.8687C12.2046 16.0328 11.9821 16.125 11.75 16.125C11.5179 16.125 11.2954 16.0328 11.1313 15.8687C10.9672 15.7046 10.875 15.4821 10.875 15.25ZM19.625 13.5C19.625 13.7321 19.5328 13.9546 19.3687 14.1187C19.2046 14.2828 18.9821 14.375 18.75 14.375H16.125V18.75C16.125 18.9821 16.0328 19.2046 15.8687 19.3687C15.7046 19.5328 15.4821 19.625 15.25 19.625H11.75C11.5179 19.625 11.2954 19.5328 11.1313 19.3687C10.9672 19.2046 10.875 18.9821 10.875 18.75C10.875 18.5179 10.9672 18.2954 11.1313 18.1313C11.2954 17.9672 11.5179 17.875 11.75 17.875H14.375V11.75C14.375 11.5179 14.4672 11.2954 14.6313 11.1313C14.7954 10.9672 15.0179 10.875 15.25 10.875C15.4821 10.875 15.7046 10.9672 15.8687 11.1313C16.0328 11.2954 16.125 11.5179 16.125 11.75V12.625H18.75C18.9821 12.625 19.2046 12.7172 19.3687 12.8813C19.5328 13.0454 19.625 13.2679 19.625 13.5ZM19.625 17V18.75C19.625 18.9821 19.5328 19.2046 19.3687 19.3687C19.2046 19.5328 18.9821 19.625 18.75 19.625C18.5179 19.625 18.2954 19.5328 18.1313 19.3687C17.9672 19.2046 17.875 18.9821 17.875 18.75V17C17.875 16.7679 17.9672 16.5454 18.1313 16.3813C18.2954 16.2172 18.5179 16.125 18.75 16.125C18.9821 16.125 19.2046 16.2172 19.3687 16.3813C19.5328 16.5454 19.625 16.7679 19.625 17Z" fill="black"/>
</svg>
