<svg width="28" height="26" viewBox="0 0 28 26" fill="none" xmlns="http://www.w3.org/2000/svg">
<path d="M22 13C22.0069 17.0406 21.2195 21.0431 19.6825 24.78C19.6079 24.9643 19.4801 25.1223 19.3153 25.2336C19.1506 25.3449 18.9564 25.4046 18.7575 25.405C18.6289 25.4038 18.5017 25.3783 18.3825 25.33C18.2609 25.2801 18.1503 25.2067 18.0571 25.114C17.9638 25.0214 17.8898 24.9112 17.8392 24.7899C17.7885 24.6686 17.7623 24.5384 17.7621 24.407C17.7618 24.2755 17.7874 24.1453 17.8375 24.0238C19.2741 20.5265 20.0089 16.7808 20 13C20 12.7348 20.1054 12.4804 20.2929 12.2929C20.4804 12.1054 20.7348 12 21 12C21.2652 12 21.5196 12.1054 21.7071 12.2929C21.8947 12.4804 22 12.7348 22 13ZM15 8C15.7033 8.00049 16.3986 8.14913 17.0406 8.43622C17.6826 8.72331 18.257 9.14242 18.7263 9.66625C18.8132 9.76649 18.9191 9.84844 19.038 9.90732C19.1569 9.9662 19.2863 10.0008 19.4187 10.0092C19.5511 10.0176 19.6838 9.99956 19.8092 9.95614C19.9345 9.91272 20.05 9.8448 20.1488 9.75632C20.2477 9.66784 20.3279 9.56058 20.3849 9.44078C20.4419 9.32098 20.4745 9.19104 20.4807 9.05853C20.487 8.92602 20.4669 8.79359 20.4215 8.66894C20.3761 8.54429 20.3063 8.42993 20.2163 8.3325C19.271 7.27623 18.0273 6.53182 16.6498 6.19775C15.2723 5.86367 13.8258 5.95568 12.5016 6.46158C11.1775 6.96749 10.0382 7.86347 9.23438 9.03098C8.43056 10.1985 8.00012 11.5825 8.00001 13C7.99988 15.8794 7.2687 18.7116 5.87501 21.2313C5.81132 21.3462 5.77088 21.4725 5.75601 21.603C5.74114 21.7336 5.75213 21.8657 5.78834 21.992C5.82456 22.1183 5.88529 22.2362 5.96708 22.339C6.04886 22.4419 6.1501 22.5276 6.26501 22.5913C6.37991 22.6549 6.50624 22.6954 6.63677 22.7102C6.76731 22.7251 6.89949 22.7141 7.02578 22.6779C7.15207 22.6417 7.26999 22.581 7.3728 22.4992C7.47562 22.4174 7.56132 22.3162 7.62501 22.2013C9.18256 19.3846 9.99974 16.2186 10 13C10 11.6739 10.5268 10.4022 11.4645 9.46447C12.4022 8.52679 13.6739 8 15 8ZM15 1.75919e-06C13.5238 -0.00177444 12.0582 0.248488 10.6663 0.740002C10.4207 0.831823 10.221 1.01643 10.1102 1.25405C9.99935 1.49168 9.9863 1.76332 10.0738 2.01048C10.1613 2.25763 10.3424 2.46053 10.5781 2.57547C10.8137 2.69041 11.0851 2.70819 11.3338 2.625C12.9932 2.03987 14.7688 1.86114 16.5115 2.10379C18.2543 2.34644 19.9135 3.0034 21.35 4.01959C22.7865 5.03577 23.9584 6.38156 24.7675 7.94411C25.5766 9.50666 25.9992 11.2404 26 13C26.0012 15.6171 25.7102 18.2262 25.1325 20.7788C25.0738 21.0368 25.1197 21.3076 25.2603 21.5319C25.4009 21.7561 25.6246 21.9154 25.8825 21.975C25.9555 21.9919 26.0301 22.0003 26.105 22C26.3317 22 26.5517 21.9229 26.7289 21.7814C26.906 21.6399 27.0298 21.4424 27.08 21.2213C27.6909 18.5235 27.9994 15.7661 28 13C27.9964 9.5533 26.6256 6.24882 24.1884 3.81163C21.7512 1.37445 18.4467 0.00364153 15 1.75919e-06ZM7.66751 4.8025C7.76542 4.71493 7.84513 4.60892 7.90208 4.49054C7.95903 4.37216 7.99211 4.24372 7.99942 4.11256C8.00673 3.9814 7.98814 3.85008 7.9447 3.7261C7.90126 3.60213 7.83383 3.48792 7.74626 3.39C7.65868 3.29208 7.55268 3.21238 7.4343 3.15543C7.31592 3.09848 7.18748 3.0654 7.05632 3.05809C6.92515 3.05078 6.79384 3.06937 6.66986 3.11281C6.54588 3.15624 6.43167 3.22368 6.33376 3.31125C4.97148 4.53129 3.88149 6.02462 3.13479 7.69398C2.3881 9.36333 2.00144 11.1713 2.00001 13C2.00281 14.5819 1.66159 16.1456 1.00001 17.5825C0.945181 17.7018 0.914396 17.8308 0.909412 17.962C0.904428 18.0933 0.925341 18.2242 0.970957 18.3474C1.06308 18.5961 1.25024 18.798 1.49126 18.9088C1.73227 19.0195 2.0074 19.0299 2.25612 18.9378C2.50484 18.8457 2.70678 18.6585 2.81751 18.4175C3.59984 16.7188 4.00333 14.8702 4.00001 13C4.00133 11.4527 4.32861 9.92298 4.96051 8.51057C5.59241 7.09815 6.51477 5.8347 7.66751 4.8025ZM13.24 22.0925C13.1207 22.0377 12.9917 22.0069 12.8605 22.0019C12.7292 21.9969 12.5983 22.0178 12.4751 22.0634C12.352 22.109 12.239 22.1785 12.1427 22.2678C12.0464 22.357 11.9686 22.4644 11.9138 22.5838C11.6738 23.1088 11.4138 23.6325 11.1275 24.1388C11.0636 24.2537 11.0229 24.3801 11.0079 24.5108C10.9929 24.6415 11.0038 24.7738 11.0401 24.9003C11.0763 25.0267 11.1371 25.1448 11.219 25.2477C11.301 25.3506 11.4024 25.4364 11.5175 25.5C11.6653 25.5826 11.8319 25.6256 12.0013 25.625C12.1798 25.6251 12.3551 25.5774 12.509 25.4868C12.6628 25.3962 12.7897 25.2661 12.8763 25.11C13.1813 24.5588 13.4688 23.985 13.7313 23.42C13.7863 23.3006 13.8172 23.1715 13.8223 23.0401C13.8274 22.9088 13.8065 22.7777 13.7609 22.6544C13.7153 22.5311 13.6458 22.418 13.5564 22.3216C13.467 22.2252 13.3595 22.1473 13.24 22.0925ZM15 12C14.7348 12 14.4804 12.1054 14.2929 12.2929C14.1054 12.4804 14 12.7348 14 13C14.0007 14.9394 13.7576 16.8713 13.2763 18.75C13.2102 19.0068 13.2488 19.2792 13.3836 19.5076C13.5184 19.7359 13.7383 19.9013 13.995 19.9675C14.0767 19.9883 14.1607 19.9988 14.245 19.9988C14.4666 19.9986 14.6818 19.9248 14.8569 19.7891C15.032 19.6533 15.1571 19.4633 15.2125 19.2488C15.7366 17.2068 16.0012 15.1069 16 12.9988C15.9997 12.7338 15.8942 12.4797 15.7067 12.2925C15.5192 12.1052 15.265 12 15 12Z" fill="black"/>
</svg>
