<svg width="28" height="26" viewBox="0 0 28 26" fill="none" xmlns="http://www.w3.org/2000/svg">
<path d="M26.8651 23.5C24.9613 20.2087 22.0276 17.8487 18.6038 16.73C20.2974 15.7218 21.6132 14.1856 22.3491 12.3572C23.0851 10.5289 23.2005 8.5095 22.6777 6.60919C22.1548 4.70889 21.0227 3.03274 19.4551 1.83815C17.8874 0.643568 15.971 -0.00340271 14.0001 -0.00340271C12.0292 -0.00340271 10.1128 0.643568 8.54513 1.83815C6.9775 3.03274 5.84534 4.70889 5.32252 6.60919C4.7997 8.5095 4.91513 10.5289 5.65108 12.3572C6.38703 14.1856 7.7028 15.7218 9.39634 16.73C5.97259 17.8475 3.03884 20.2075 1.13509 23.5C1.06528 23.6138 1.01897 23.7405 0.998905 23.8725C0.978837 24.0045 0.985415 24.1392 1.01825 24.2687C1.05108 24.3981 1.10951 24.5197 1.19008 24.6262C1.27066 24.7327 1.37174 24.8219 1.48738 24.8887C1.60301 24.9555 1.73085 24.9985 1.86335 25.0151C1.99586 25.0316 2.13034 25.0215 2.25887 24.9853C2.3874 24.9491 2.50737 24.8874 2.6117 24.8041C2.71604 24.7208 2.80262 24.6174 2.86634 24.5C5.22134 20.43 9.38384 18 14.0001 18C18.6163 18 22.7788 20.43 25.1338 24.5C25.1976 24.6174 25.2842 24.7208 25.3885 24.8041C25.4928 24.8874 25.6128 24.9491 25.7413 24.9853C25.8698 25.0215 26.0043 25.0316 26.1368 25.0151C26.2693 24.9985 26.3972 24.9555 26.5128 24.8887C26.6284 24.8219 26.7295 24.7327 26.8101 24.6262C26.8907 24.5197 26.9491 24.3981 26.9819 24.2687C27.0148 24.1392 27.0213 24.0045 27.0013 23.8725C26.9812 23.7405 26.9349 23.6138 26.8651 23.5ZM7.00009 9C7.00009 7.61553 7.41064 6.26215 8.17981 5.11101C8.94898 3.95986 10.0422 3.06265 11.3213 2.53284C12.6004 2.00303 14.0079 1.8644 15.3657 2.1345C16.7236 2.4046 17.9709 3.07128 18.9498 4.05025C19.9288 5.02922 20.5955 6.2765 20.8656 7.63437C21.1357 8.99223 20.9971 10.3997 20.4673 11.6788C19.9374 12.9579 19.0402 14.0511 17.8891 14.8203C16.7379 15.5895 15.3846 16 14.0001 16C12.1442 15.998 10.3649 15.2599 9.05254 13.9476C7.74022 12.6352 7.00208 10.8559 7.00009 9Z" fill="black"/>
</svg>
