<svg width="21" height="21" viewBox="0 0 21 21" fill="none" xmlns="http://www.w3.org/2000/svg">
<path d="M20.4278 19.3223L15.5382 14.4336C16.9554 12.7321 17.6621 10.5498 17.5113 8.34057C17.3604 6.13134 16.3637 4.0653 14.7284 2.57225C13.093 1.0792 10.9451 0.274085 8.73126 0.324398C6.51745 0.37471 4.40827 1.27657 2.84247 2.84237C1.27666 4.40818 0.374802 6.51736 0.324489 8.73117C0.274177 10.945 1.07929 13.093 2.57234 14.7283C4.06539 16.3636 6.13143 17.3603 8.34066 17.5112C10.5499 17.662 12.7322 16.9553 14.4337 15.5381L19.3224 20.4277C19.395 20.5003 19.4811 20.5579 19.576 20.5972C19.6708 20.6365 19.7725 20.6567 19.8751 20.6567C19.9778 20.6567 20.0794 20.6365 20.1742 20.5972C20.2691 20.5579 20.3553 20.5003 20.4278 20.4277C20.5004 20.3552 20.558 20.269 20.5973 20.1741C20.6366 20.0793 20.6568 19.9777 20.6568 19.875C20.6568 19.7724 20.6366 19.6707 20.5973 19.5759C20.558 19.481 20.5004 19.3949 20.4278 19.3223ZM1.90635 8.93751C1.90635 7.54686 2.31873 6.18744 3.09133 5.03116C3.86393 3.87487 4.96207 2.97366 6.24686 2.44148C7.53165 1.9093 8.9454 1.77006 10.3093 2.04136C11.6733 2.31267 12.9261 2.98233 13.9094 3.96566C14.8928 4.949 15.5624 6.20185 15.8337 7.56578C16.1051 8.92971 15.9658 10.3435 15.4336 11.6283C14.9015 12.913 14.0002 14.0112 12.844 14.7838C11.6877 15.5564 10.3283 15.9688 8.9376 15.9688C7.07343 15.9667 5.28621 15.2252 3.96804 13.9071C2.64987 12.5889 1.90842 10.8017 1.90635 8.93751Z" fill="black"/>
</svg>
