<svg width="35" height="35" viewBox="0 0 35 35" fill="none" xmlns="http://www.w3.org/2000/svg">
<path d="M31.4645 8.04863C31.3618 7.92577 31.2334 7.82695 31.0883 7.75915C30.9433 7.69135 30.7851 7.65622 30.625 7.65625H8.56953L7.73828 3.08574C7.6925 2.83373 7.55971 2.60577 7.36308 2.44162C7.16645 2.27747 6.91845 2.18754 6.6623 2.1875H3.28125C2.99117 2.1875 2.71297 2.30273 2.50785 2.50785C2.30273 2.71297 2.1875 2.99117 2.1875 3.28125C2.1875 3.57133 2.30273 3.84953 2.50785 4.05465C2.71297 4.25977 2.99117 4.375 3.28125 4.375H5.74219L9.23672 23.5553C9.33966 24.1241 9.59104 24.6556 9.96543 25.0961C9.4487 25.5787 9.07573 26.1951 8.88789 26.8767C8.70005 27.5584 8.70468 28.2788 8.90125 28.958C9.09783 29.6372 9.47867 30.2487 10.0016 30.7246C10.5244 31.2006 11.1689 31.5224 11.8636 31.6545C12.5582 31.7865 13.2758 31.7236 13.9369 31.4727C14.598 31.2218 15.1766 30.7927 15.6087 30.233C16.0408 29.6733 16.3094 29.0049 16.3848 28.3018C16.4602 27.5988 16.3393 26.8886 16.0357 26.25H22.2455C22.0008 26.7623 21.8742 27.3229 21.875 27.8906C21.875 28.6478 22.0995 29.3879 22.5202 30.0174C22.9408 30.6469 23.5387 31.1376 24.2382 31.4274C24.9377 31.7171 25.7074 31.7929 26.45 31.6452C27.1925 31.4975 27.8746 31.1329 28.41 30.5975C28.9454 30.0621 29.31 29.38 29.4577 28.6375C29.6054 27.8949 29.5296 27.1252 29.2399 26.4257C28.9501 25.7262 28.4594 25.1283 27.8299 24.7077C27.2004 24.287 26.4603 24.0625 25.7031 24.0625H12.4646C12.2085 24.0625 11.9605 23.9725 11.7639 23.8084C11.5672 23.6442 11.4345 23.4163 11.3887 23.1643L10.9553 20.7812H26.8146C27.5831 20.7811 28.3271 20.5113 28.917 20.0189C29.5069 19.5264 29.9052 18.8426 30.0426 18.0865L31.7051 8.94551C31.7332 8.78752 31.7263 8.62526 31.6847 8.47027C31.6431 8.31527 31.5679 8.17132 31.4645 8.04863ZM14.2188 27.8906C14.2188 28.2151 14.1225 28.5323 13.9423 28.8021C13.762 29.0719 13.5057 29.2822 13.206 29.4064C12.9062 29.5305 12.5763 29.563 12.2581 29.4997C11.9398 29.4364 11.6475 29.2802 11.418 29.0507C11.1886 28.8213 11.0323 28.5289 10.969 28.2107C10.9057 27.8924 10.9382 27.5626 11.0624 27.2628C11.1866 26.963 11.3968 26.7068 11.6666 26.5265C11.9364 26.3462 12.2536 26.25 12.5781 26.25C13.0132 26.25 13.4305 26.4229 13.7382 26.7305C14.0459 27.0382 14.2188 27.4555 14.2188 27.8906ZM27.3438 27.8906C27.3438 28.2151 27.2475 28.5323 27.0673 28.8021C26.887 29.0719 26.6307 29.2822 26.331 29.4064C26.0312 29.5305 25.7013 29.563 25.3831 29.4997C25.0648 29.4364 24.7725 29.2802 24.543 29.0507C24.3136 28.8213 24.1573 28.5289 24.094 28.2107C24.0307 27.8924 24.0632 27.5626 24.1874 27.2628C24.3116 26.963 24.5218 26.7068 24.7916 26.5265C25.0614 26.3462 25.3786 26.25 25.7031 26.25C26.1382 26.25 26.5555 26.4229 26.8632 26.7305C27.1709 27.0382 27.3438 27.4555 27.3438 27.8906ZM27.8906 17.6955C27.8447 17.9482 27.7113 18.1767 27.5139 18.3409C27.3164 18.5052 27.0674 18.5947 26.8105 18.5938H10.5574L8.96738 9.84375H29.3139L27.8906 17.6955Z" fill="#486FE6"/>
</svg>
